<?xml version="1.0" encoding="utf-8"?>
<!-- Generator: Adobe Illustrator 19.0.0, SVG Export Plug-In . SVG Version: 6.00 Build 0)  -->
<svg version="1.1" id="Layer_1" xmlns="http://www.w3.org/2000/svg" xmlns:xlink="http://www.w3.org/1999/xlink" x="0px" y="0px"
	 viewBox="0 0 440 110" enable-background="new 0 0 440 110" xml:space="preserve">
<path id="XMLID_26_" fill="#6A6465" d="M100.759,16.063c0.066,1.532-1.12,2.828-2.652,2.893c-1.532,0.069-2.828-1.12-2.896-2.651
	c-0.066-1.532,1.123-2.828,2.654-2.896C99.397,13.343,100.69,14.531,100.759,16.063z"/>
<path id="XMLID_25_" fill="#6A6465" d="M90.267,19.684c1.842,0.125,3.234,1.72,3.108,3.562c-0.125,1.839-1.72,3.231-3.562,3.108
	c-1.842-0.125-3.234-1.723-3.108-3.562C86.83,20.951,88.425,19.559,90.267,19.684z"/>
<path id="XMLID_24_" fill="#6A6465" d="M92.399,10.688c0.066,1.532-1.12,2.828-2.652,2.893c-1.532,0.069-2.828-1.12-2.896-2.651
	c-0.066-1.532,1.123-2.828,2.654-2.896C91.037,7.968,92.33,9.157,92.399,10.688z"/>
<path id="XMLID_23_" fill="#6A6465" d="M82.241,25.952c2.257,0.155,3.959,2.108,3.807,4.362c-0.155,2.257-2.108,3.962-4.362,3.807
	c-2.257-0.152-3.962-2.105-3.807-4.362C78.031,27.504,79.984,25.799,82.241,25.952z"/>
<path id="XMLID_22_" fill="#6A6465" d="M81.88,14.734c1.839,0.125,3.234,1.72,3.108,3.562c-0.125,1.839-1.723,3.231-3.562,3.105
	c-1.843-0.125-3.234-1.72-3.108-3.559C78.443,16,80.037,14.609,81.88,14.734z"/>
<path id="XMLID_21_" fill="#6A6465" d="M83.531,7.162c0.066,1.532-1.123,2.828-2.655,2.893c-1.532,0.069-2.828-1.12-2.893-2.651
	c-0.069-1.532,1.12-2.828,2.651-2.896C82.166,4.442,83.462,5.631,83.531,7.162z"/>
<path id="XMLID_20_" fill="#6A6465" d="M73.508,22.049c2.254,0.152,3.959,2.108,3.807,4.362c-0.155,2.254-2.108,3.959-4.362,3.807
	c-2.257-0.155-3.962-2.108-3.807-4.362C69.298,23.599,71.251,21.897,73.508,22.049z"/>
<path id="XMLID_19_" fill="#6A6465" d="M73.397,33.721c2.601,0.176,4.568,2.43,4.392,5.031c-0.179,2.604-2.43,4.571-5.034,4.392
	c-2.604-0.176-4.569-2.43-4.392-5.034C68.54,35.509,70.794,33.542,73.397,33.721z"/>
<path id="XMLID_18_" fill="#6A6465" d="M72.433,12.387c1.842,0.125,3.234,1.72,3.108,3.562c-0.125,1.842-1.72,3.234-3.562,3.108
	c-1.842-0.125-3.231-1.72-3.105-3.562C68.999,13.653,70.593,12.262,72.433,12.387z"/>
<path id="XMLID_17_" fill="#6A6465" d="M74.087,5.413c0.066,1.532-1.123,2.828-2.655,2.896c-1.532,0.066-2.828-1.123-2.893-2.654
	c-0.069-1.532,1.12-2.828,2.651-2.893C72.722,2.692,74.018,3.881,74.087,5.413z"/>
<polygon id="XMLID_16_" fill="#FFFFFF" points="67.452,57.379 69.136,57.379 69.136,55.696 "/>
<polygon id="XMLID_15_" fill="#FFFFFF" points="65.481,52.621 64.377,52.621 64.377,53.725 "/>
<path id="XMLID_14_" fill="#EB2629" d="M37.824,57.379H13.433c0.568,12.867,5.715,24.542,13.852,33.437L44.532,73.57
	C40.767,69.129,38.328,63.528,37.824,57.379z"/>
<path id="XMLID_13_" fill="#EB2629" d="M47.899,76.933L30.65,94.181c8.962,8.197,20.746,13.361,33.727,13.864V83.667
	C58.114,83.217,52.41,80.757,47.899,76.933z"/>
<path id="XMLID_12_" fill="#EB2629" d="M69.136,83.619v24.403c12.882-0.638,24.553-5.868,33.415-14.087L85.313,76.698
	C80.897,80.538,75.298,83.052,69.136,83.619z"/>
<path id="XMLID_11_" fill="#EB2629" d="M88.636,73.292l17.258,17.258c7.995-8.863,13.045-20.433,13.607-33.17H95.11
	C94.616,63.4,92.267,68.895,88.636,73.292z"/>
<path id="XMLID_10_" fill="#EB2629" d="M44.769,36.154L27.532,18.917c-8.278,8.929-13.525,20.708-14.099,33.704h24.391
	C38.338,46.344,40.87,40.639,44.769,36.154z"/>
<path id="XMLID_9_" fill="#EB2629" d="M95.11,52.621h24.391c-0.568-12.867-5.716-24.542-13.853-33.438L88.399,36.432
	C92.164,40.874,94.606,46.472,95.11,52.621z"/>
<path id="XMLID_8_" fill="#EB2629" d="M64.377,26.34V1.955c-12.852,0.498-24.53,5.563-33.459,13.62l17.257,17.257
	C52.642,29.142,58.243,26.782,64.377,26.34z"/>
<polygon id="XMLID_7_" fill="#FFFFFF" points="64.377,55.762 64.377,57.379 65.994,57.379 "/>
<polygon id="XMLID_6_" fill="#FFFFFF" points="65.994,57.379 66.723,58.108 67.452,57.379 "/>
<polygon id="XMLID_5_" fill="#FFFFFF" points="67.965,52.621 66.723,51.379 65.481,52.621 "/>
<polygon id="XMLID_4_" fill="#FFFFFF" points="64.377,53.725 63.359,54.744 64.377,55.762 "/>
<polygon id="XMLID_3_" fill="#FFFFFF" points="69.136,53.792 69.136,52.621 67.965,52.621 "/>
<polygon id="XMLID_2_" fill="#FFFFFF" points="69.136,55.696 70.088,54.744 69.136,53.792 "/>
<circle id="XMLID_1_" fill="#6A6465" cx="66.467" cy="55" r="10.832"/>
<g id="XMLID_29_">
	<path id="XMLID_30_" fill="#6A6465" d="M160.281,76.524c0,0.188-0.041,0.346-0.123,0.475c-0.083,0.129-0.229,0.24-0.439,0.334
		s-0.487,0.164-0.826,0.211c-0.34,0.047-0.756,0.07-1.248,0.07c-0.54,0-0.979-0.023-1.318-0.07c-0.34-0.047-0.61-0.117-0.809-0.211
		c-0.199-0.094-0.334-0.205-0.404-0.334s-0.105-0.287-0.105-0.475v-4.184c-1.805,1.992-3.586,3.445-5.344,4.359
		s-3.539,1.371-5.344,1.371c-2.109,0-3.885-0.352-5.326-1.055s-2.607-1.658-3.498-2.865c-0.891-1.207-1.529-2.613-1.916-4.219
		S133,66.377,133,64.079V44.884c0-0.188,0.041-0.346,0.123-0.475c0.082-0.128,0.24-0.246,0.475-0.352
		c0.234-0.105,0.539-0.176,0.914-0.211c0.375-0.035,0.844-0.053,1.406-0.053s1.031,0.018,1.406,0.053
		c0.375,0.035,0.673,0.105,0.896,0.211c0.223,0.105,0.381,0.223,0.475,0.352c0.093,0.129,0.141,0.287,0.141,0.475v18.422
		c0,1.852,0.135,3.335,0.404,4.447c0.269,1.113,0.68,2.063,1.23,2.848c0.55,0.785,1.248,1.395,2.092,1.828s1.828,0.65,2.953,0.65
		c1.453,0,2.9-0.516,4.342-1.547s2.971-2.543,4.588-4.535V44.884c0-0.188,0.041-0.346,0.123-0.475
		c0.082-0.128,0.24-0.246,0.475-0.352c0.234-0.105,0.533-0.176,0.896-0.211c0.363-0.035,0.838-0.053,1.424-0.053
		c0.563,0,1.031,0.018,1.406,0.053c0.375,0.035,0.668,0.105,0.879,0.211s0.369,0.223,0.475,0.352
		c0.105,0.129,0.158,0.287,0.158,0.475V76.524z"/>
	<path id="XMLID_32_" fill="#6A6465" d="M198.25,76.524c0,0.188-0.047,0.346-0.141,0.475c-0.094,0.129-0.246,0.24-0.457,0.334
		s-0.504,0.164-0.879,0.211c-0.375,0.047-0.844,0.07-1.406,0.07c-0.586,0-1.067-0.023-1.441-0.07
		c-0.375-0.047-0.668-0.117-0.879-0.211s-0.364-0.205-0.457-0.334c-0.094-0.129-0.141-0.287-0.141-0.475V57.997
		c0-1.805-0.141-3.257-0.422-4.359c-0.281-1.102-0.691-2.051-1.23-2.848c-0.54-0.796-1.236-1.406-2.092-1.828
		c-0.856-0.422-1.846-0.633-2.971-0.633c-1.454,0-2.906,0.516-4.359,1.547c-1.454,1.032-2.977,2.543-4.57,4.535v22.113
		c0,0.188-0.047,0.346-0.141,0.475c-0.094,0.129-0.246,0.24-0.457,0.334s-0.504,0.164-0.879,0.211
		c-0.375,0.047-0.856,0.07-1.441,0.07c-0.563,0-1.032-0.023-1.406-0.07c-0.375-0.047-0.674-0.117-0.896-0.211
		c-0.223-0.094-0.375-0.205-0.457-0.334c-0.083-0.129-0.123-0.287-0.123-0.475V44.884c0-0.188,0.035-0.346,0.105-0.475
		c0.07-0.128,0.211-0.246,0.422-0.352s0.48-0.176,0.809-0.211c0.328-0.035,0.761-0.053,1.301-0.053c0.515,0,0.943,0.018,1.283,0.053
		c0.339,0.035,0.603,0.105,0.791,0.211c0.188,0.105,0.322,0.223,0.404,0.352c0.082,0.129,0.123,0.287,0.123,0.475v4.184
		c1.781-1.992,3.556-3.451,5.326-4.377c1.77-0.926,3.556-1.389,5.361-1.389c2.109,0,3.885,0.357,5.326,1.072
		c1.441,0.715,2.607,1.67,3.498,2.865c0.891,1.195,1.529,2.596,1.916,4.201c0.387,1.605,0.58,3.533,0.58,5.783V76.524z"/>
	<path id="XMLID_34_" fill="#EB2629" d="M237.941,60.282c0,2.742-0.299,5.209-0.896,7.4s-1.477,4.061-2.638,5.607
		c-1.16,1.547-2.584,2.73-4.271,3.551s-3.621,1.23-5.801,1.23c-1.008,0-1.939-0.1-2.795-0.299s-1.693-0.521-2.513-0.967
		c-0.821-0.445-1.641-1.008-2.461-1.688c-0.821-0.68-1.688-1.5-2.602-2.461v3.867c0,0.188-0.047,0.352-0.141,0.492
		c-0.094,0.141-0.246,0.252-0.457,0.334s-0.475,0.146-0.791,0.193s-0.721,0.07-1.213,0.07c-0.469,0-0.867-0.023-1.195-0.07
		c-0.329-0.047-0.598-0.111-0.809-0.193s-0.352-0.193-0.422-0.334s-0.105-0.305-0.105-0.492V29.556c0-0.188,0.041-0.352,0.123-0.492
		c0.082-0.141,0.234-0.258,0.457-0.352c0.223-0.093,0.521-0.164,0.896-0.211c0.375-0.047,0.844-0.07,1.406-0.07
		c0.585,0,1.066,0.023,1.441,0.07c0.375,0.047,0.668,0.118,0.879,0.211c0.211,0.094,0.363,0.211,0.457,0.352
		c0.093,0.141,0.141,0.305,0.141,0.492v18.949c0.937-0.961,1.846-1.77,2.725-2.426c0.879-0.656,1.74-1.189,2.584-1.6
		c0.844-0.41,1.687-0.708,2.531-0.896c0.844-0.188,1.734-0.281,2.672-0.281c2.297,0,4.26,0.457,5.889,1.371s2.953,2.139,3.973,3.674
		c1.021,1.535,1.765,3.334,2.233,5.396C237.707,55.806,237.941,57.985,237.941,60.282z M231.929,60.95
		c0-1.617-0.124-3.187-0.371-4.711c-0.248-1.523-0.679-2.871-1.291-4.043c-0.613-1.172-1.427-2.115-2.441-2.83
		c-1.014-0.715-2.275-1.072-3.784-1.072c-0.755,0-1.498,0.105-2.229,0.316s-1.473,0.563-2.228,1.055s-1.539,1.125-2.353,1.898
		c-0.814,0.773-1.68,1.746-2.6,2.918v12.621c1.604,1.945,3.136,3.428,4.598,4.447s2.982,1.529,4.563,1.529
		c1.461,0,2.711-0.352,3.749-1.055c1.037-0.703,1.881-1.635,2.528-2.795c0.648-1.16,1.12-2.461,1.415-3.902
		S231.929,62.427,231.929,60.95z"/>
	<path id="XMLID_37_" fill="#EB2629" d="M252.461,76.524c0,0.188-0.047,0.346-0.141,0.475s-0.246,0.24-0.457,0.334
		s-0.504,0.164-0.879,0.211s-0.855,0.07-1.441,0.07c-0.563,0-1.031-0.023-1.406-0.07s-0.674-0.117-0.896-0.211
		s-0.375-0.205-0.457-0.334s-0.123-0.287-0.123-0.475V29.556c0-0.188,0.041-0.352,0.123-0.492s0.234-0.258,0.457-0.352
		c0.223-0.093,0.521-0.164,0.896-0.211c0.375-0.047,0.844-0.07,1.406-0.07c0.586,0,1.066,0.023,1.441,0.07
		c0.375,0.047,0.668,0.118,0.879,0.211c0.211,0.094,0.363,0.211,0.457,0.352s0.141,0.305,0.141,0.492V76.524z"/>
	<path id="XMLID_39_" fill="#EB2629" d="M292.609,60.353c0,2.579-0.34,4.952-1.02,7.119c-0.68,2.168-1.693,4.037-3.041,5.607
		s-3.035,2.795-5.063,3.674s-4.377,1.318-7.049,1.318c-2.602,0-4.869-0.387-6.803-1.16s-3.545-1.898-4.834-3.375
		s-2.25-3.27-2.883-5.379s-0.949-4.5-0.949-7.172c0-2.578,0.334-4.951,1.002-7.119c0.668-2.167,1.676-4.037,3.023-5.607
		c1.348-1.57,3.029-2.789,5.045-3.656c2.016-0.867,4.371-1.301,7.066-1.301c2.602,0,4.869,0.387,6.803,1.16s3.545,1.898,4.834,3.375
		s2.256,3.27,2.9,5.379S292.609,57.704,292.609,60.353z M286.598,60.739c0-1.71-0.16-3.327-0.479-4.852
		c-0.32-1.523-0.847-2.859-1.579-4.008c-0.733-1.148-1.727-2.057-2.98-2.725c-1.253-0.668-2.813-1.002-4.682-1.002
		c-1.727,0-3.211,0.305-4.452,0.914c-1.242,0.61-2.265,1.471-3.069,2.584c-0.804,1.113-1.401,2.432-1.791,3.955
		c-0.39,1.524-0.585,3.188-0.585,4.992c0,1.735,0.159,3.363,0.479,4.887c0.319,1.524,0.852,2.854,1.597,3.99
		s1.743,2.039,2.997,2.707s2.814,1.002,4.683,1.002c1.703,0,3.181-0.305,4.435-0.914s2.282-1.465,3.086-2.566
		c0.805-1.102,1.396-2.413,1.773-3.938C286.408,64.243,286.598,62.567,286.598,60.739z"/>
	<path id="XMLID_42_" fill="#EB2629" d="M323.898,71.708c0,0.398-0.012,0.744-0.035,1.037s-0.064,0.539-0.123,0.738
		s-0.129,0.375-0.211,0.527s-0.27,0.375-0.563,0.668s-0.791,0.656-1.494,1.09s-1.494,0.82-2.373,1.16s-1.834,0.615-2.865,0.826
		s-2.098,0.316-3.199,0.316c-2.273,0-4.289-0.375-6.047-1.125s-3.229-1.846-4.412-3.287s-2.086-3.211-2.707-5.309
		c-0.621-2.097-0.932-4.518-0.932-7.26c0-3.116,0.381-5.795,1.143-8.033c0.762-2.238,1.805-4.072,3.129-5.502
		c1.324-1.429,2.883-2.49,4.676-3.182c1.793-0.691,3.732-1.037,5.818-1.037c1.008,0,1.986,0.094,2.936,0.281
		c0.949,0.188,1.822,0.434,2.619,0.738c0.797,0.305,1.506,0.656,2.127,1.055c0.621,0.399,1.072,0.738,1.354,1.02
		s0.475,0.504,0.58,0.668c0.105,0.164,0.193,0.357,0.264,0.58c0.07,0.223,0.117,0.475,0.141,0.756s0.035,0.633,0.035,1.055
		c0,0.914-0.105,1.553-0.316,1.916c-0.211,0.364-0.469,0.545-0.773,0.545c-0.352,0-0.756-0.193-1.213-0.58s-1.037-0.814-1.74-1.283
		c-0.703-0.469-1.553-0.896-2.549-1.283s-2.174-0.58-3.533-0.58c-2.789,0-4.928,1.072-6.416,3.217s-2.232,5.256-2.232,9.334
		c0,2.039,0.193,3.827,0.58,5.361c0.387,1.535,0.955,2.818,1.705,3.85s1.67,1.799,2.76,2.303s2.338,0.756,3.744,0.756
		c1.336,0,2.508-0.211,3.516-0.633s1.881-0.885,2.619-1.389s1.359-0.961,1.863-1.371s0.896-0.615,1.178-0.615
		c0.164,0,0.305,0.047,0.422,0.141s0.217,0.252,0.299,0.475s0.141,0.504,0.176,0.844S323.898,71.239,323.898,71.708z"/>
	<path id="XMLID_44_" fill="#EB2629" d="M357.578,76.489c0,0.188-0.047,0.352-0.141,0.492s-0.252,0.258-0.475,0.352
		s-0.533,0.164-0.932,0.211s-0.902,0.07-1.512,0.07c-0.633,0-1.154-0.018-1.564-0.053s-0.756-0.094-1.037-0.176
		s-0.51-0.199-0.686-0.352s-0.334-0.334-0.475-0.545l-13.359-17.508v17.543c0,0.188-0.047,0.346-0.141,0.475
		s-0.246,0.24-0.457,0.334s-0.504,0.164-0.879,0.211s-0.855,0.07-1.441,0.07c-0.563,0-1.031-0.023-1.406-0.07
		s-0.674-0.117-0.896-0.211s-0.375-0.205-0.457-0.334s-0.123-0.287-0.123-0.475V29.556c0-0.188,0.041-0.352,0.123-0.492
		s0.234-0.258,0.457-0.352c0.223-0.093,0.521-0.164,0.896-0.211c0.375-0.047,0.844-0.07,1.406-0.07c0.586,0,1.066,0.023,1.441,0.07
		c0.375,0.047,0.668,0.118,0.879,0.211c0.211,0.094,0.363,0.211,0.457,0.352s0.141,0.305,0.141,0.492v28.617l11.953-13.148
		c0.188-0.234,0.387-0.427,0.598-0.58c0.211-0.152,0.463-0.281,0.756-0.387s0.639-0.176,1.037-0.211s0.879-0.053,1.441-0.053
		c0.586,0,1.078,0.018,1.477,0.053s0.721,0.094,0.967,0.176c0.246,0.083,0.422,0.188,0.527,0.316
		c0.105,0.129,0.158,0.299,0.158,0.51c0,0.281-0.076,0.563-0.229,0.844s-0.404,0.61-0.756,0.984l-11.461,11.461l12.867,16.699
		c0.305,0.398,0.521,0.721,0.65,0.967S357.578,76.278,357.578,76.489z"/>
	<path id="XMLID_46_" fill="#EB2629" d="M389.008,59.333c0,0.914-0.229,1.564-0.688,1.951c-0.46,0.387-0.983,0.58-1.572,0.58H365.91
		c0,1.758,0.177,3.34,0.529,4.746c0.354,1.406,0.942,2.613,1.767,3.621s1.896,1.781,3.215,2.32s2.933,0.809,4.84,0.809
		c1.508,0,2.85-0.123,4.027-0.369s2.196-0.521,3.056-0.826s1.566-0.58,2.12-0.826s0.972-0.369,1.255-0.369
		c0.164,0,0.311,0.041,0.44,0.123s0.229,0.205,0.301,0.369c0.07,0.164,0.123,0.393,0.158,0.686s0.054,0.65,0.054,1.072
		c0,0.305-0.012,0.568-0.035,0.791s-0.053,0.422-0.088,0.598s-0.094,0.334-0.176,0.475s-0.188,0.275-0.316,0.404
		s-0.51,0.34-1.143,0.633s-1.453,0.58-2.461,0.861s-2.174,0.533-3.498,0.756s-2.736,0.334-4.236,0.334
		c-2.602,0-4.881-0.363-6.838-1.09s-3.604-1.805-4.939-3.234s-2.344-3.223-3.023-5.379s-1.02-4.663-1.02-7.523
		c0-2.719,0.352-5.162,1.055-7.33c0.703-2.167,1.717-4.008,3.041-5.52s2.924-2.672,4.799-3.48s3.973-1.213,6.293-1.213
		c2.484,0,4.6,0.399,6.346,1.195c1.746,0.797,3.182,1.869,4.307,3.217c1.125,1.348,1.951,2.93,2.479,4.746
		c0.527,1.816,0.791,3.757,0.791,5.818V59.333z M383.172,57.61c0.07-3.046-0.608-5.437-2.034-7.172
		c-1.427-1.734-3.543-2.602-6.349-2.602c-1.439,0-2.701,0.27-3.785,0.809c-1.085,0.54-1.993,1.254-2.724,2.145
		c-0.731,0.891-1.297,1.928-1.698,3.111c-0.401,1.184-0.625,2.421-0.672,3.709H383.172z"/>
	<path id="XMLID_49_" fill="#EB2629" d="M424.938,76.524c0,0.188-0.041,0.352-0.123,0.492s-0.223,0.252-0.422,0.334
		s-0.463,0.146-0.791,0.193s-0.727,0.07-1.195,0.07c-0.492,0-0.902-0.023-1.23-0.07s-0.598-0.111-0.809-0.193
		s-0.363-0.193-0.457-0.334s-0.141-0.305-0.141-0.492v-4.184c-1.664,1.805-3.393,3.211-5.186,4.219s-3.756,1.512-5.889,1.512
		c-2.32,0-4.301-0.451-5.941-1.354s-2.971-2.121-3.99-3.656s-1.764-3.34-2.232-5.414s-0.703-4.259-0.703-6.557
		c0-2.719,0.293-5.173,0.879-7.365c0.586-2.191,1.453-4.061,2.602-5.607s2.572-2.736,4.271-3.568
		c1.699-0.832,3.662-1.248,5.889-1.248c1.852,0,3.545,0.404,5.08,1.213s3.053,1.999,4.553,3.568V29.696
		c0-0.164,0.041-0.322,0.123-0.475c0.082-0.152,0.24-0.269,0.475-0.352c0.234-0.082,0.533-0.152,0.896-0.211
		c0.363-0.058,0.826-0.088,1.389-0.088c0.586,0,1.066,0.03,1.441,0.088c0.375,0.059,0.668,0.129,0.879,0.211
		c0.211,0.083,0.369,0.199,0.475,0.352c0.105,0.153,0.158,0.311,0.158,0.475V76.524z M419.102,54.271
		c-1.57-1.945-3.088-3.428-4.553-4.447s-2.994-1.529-4.588-1.529c-1.477,0-2.73,0.352-3.762,1.055s-1.869,1.629-2.514,2.777
		c-0.645,1.148-1.113,2.449-1.406,3.902c-0.293,1.454-0.439,2.931-0.439,4.43c0,1.595,0.123,3.152,0.369,4.676
		c0.246,1.524,0.674,2.878,1.283,4.061c0.609,1.184,1.418,2.133,2.426,2.848s2.273,1.072,3.797,1.072
		c0.773,0,1.518-0.105,2.232-0.316s1.447-0.563,2.197-1.055s1.535-1.131,2.355-1.916s1.688-1.752,2.602-2.9V54.271z"/>
</g>
</svg>
