<?xml version="1.0" encoding="utf-8"?>
<!-- Generator: Adobe Illustrator 15.1.0, SVG Export Plug-In  -->
<!DOCTYPE svg PUBLIC "-//W3C//DTD SVG 1.1//EN" "http://www.w3.org/Graphics/SVG/1.1/DTD/svg11.dtd" [
	<!ENTITY ns_flows "http://ns.adobe.com/Flows/1.0/">
]>
<svg version="1.1"
	 xmlns="http://www.w3.org/2000/svg" xmlns:xlink="http://www.w3.org/1999/xlink" xmlns:a="http://ns.adobe.com/AdobeSVGViewerExtensions/3.0/"
	 x="0px" y="0px" width="469px" height="460px" viewBox="-53.658 -45.12 469 460"
	 overflow="visible" enable-background="new -53.658 -45.12 469 460" xml:space="preserve">
<defs>
</defs>
<path fill="#696364" d="M292.472,47.25c0.22,5.13-3.75,9.47-8.881,9.69c-5.13,0.23-9.47-3.75-9.699-8.88
	c-0.221-5.13,3.76-9.47,8.89-9.7C287.911,38.14,292.241,42.121,292.472,47.25z"/>
<path fill="#696364" d="M257.331,59.38c6.17,0.42,10.83,5.76,10.41,11.93c-0.42,6.16-5.76,10.82-11.93,10.41
	c-6.17-0.42-10.83-5.77-10.41-11.93C245.821,63.621,251.161,58.96,257.331,59.38z"/>
<path fill="#696364" d="M264.472,29.25c0.22,5.13-3.75,9.47-8.881,9.69c-5.13,0.23-9.47-3.75-9.699-8.88
	c-0.221-5.13,3.76-9.47,8.89-9.7C259.911,20.14,264.241,24.121,264.472,29.25z"/>
<path fill="#696364" d="M230.451,80.371c7.56,0.52,13.26,7.06,12.75,14.61c-0.52,7.56-7.06,13.27-14.61,12.75
	c-7.56-0.51-13.27-7.05-12.75-14.61C216.352,85.57,222.892,79.86,230.451,80.371z"/>
<path fill="#696364" d="M229.241,42.8c6.16,0.42,10.83,5.76,10.41,11.93c-0.42,6.16-5.771,10.82-11.93,10.4
	c-6.171-0.42-10.83-5.76-10.41-11.92C217.731,47.041,223.071,42.38,229.241,42.8z"/>
<path fill="#696364" d="M234.771,17.44c0.22,5.13-3.761,9.47-8.891,9.69c-5.13,0.23-9.47-3.75-9.689-8.88
	c-0.23-5.13,3.75-9.47,8.88-9.7C230.201,8.331,234.541,12.311,234.771,17.44z"/>
<path fill="#696364" d="M201.201,67.3c7.55,0.51,13.26,7.06,12.75,14.61c-0.52,7.55-7.06,13.26-14.61,12.75
	c-7.56-0.52-13.27-7.06-12.75-14.61C187.102,72.49,193.642,66.791,201.201,67.3z"/>
<path fill="#696364" d="M200.831,106.39c8.71,0.59,15.3,8.14,14.71,16.85c-0.6,8.72-8.14,15.31-16.859,14.71
	c-8.721-0.59-15.301-8.14-14.71-16.86C184.562,112.38,192.111,105.791,200.831,106.39z"/>
<path fill="#696364" d="M197.602,34.94c6.17,0.42,10.83,5.76,10.409,11.93c-0.42,6.17-5.76,10.83-11.93,10.41
	s-10.82-5.76-10.399-11.93C186.102,39.18,191.441,34.521,197.602,34.94z"/>
<path fill="#696364" d="M203.142,11.581c0.22,5.13-3.761,9.47-8.891,9.7c-5.13,0.22-9.47-3.76-9.689-8.89
	c-0.23-5.13,3.75-9.47,8.88-9.69C198.571,2.47,202.911,6.45,203.142,11.581z"/>
<polygon fill="#FFFFFF" points="180.92,185.628 186.558,185.628 186.558,179.991 "/>
<polygon fill="#FFFFFF" points="174.319,169.692 170.621,169.692 170.621,173.39 "/>
<path fill="#EC2027" d="M81.689,185.628H0c1.901,43.093,19.142,82.196,46.393,111.989l57.761-57.761
	C91.547,224.979,83.377,206.222,81.689,185.628z"/>
<path fill="#EC2027" d="M115.431,251.117l-57.768,57.768c30.017,27.454,69.482,44.749,112.958,46.434v-81.647
	C149.646,272.164,130.542,263.924,115.431,251.117z"/>
<path fill="#EC2027" d="M186.558,273.512v81.731c43.143-2.137,82.233-19.654,111.915-47.179l-57.733-57.733
	C225.949,263.191,207.198,271.611,186.558,273.512z"/>
<path fill="#EC2027" d="M251.868,238.923l57.8,57.8c26.776-29.683,43.691-68.435,45.573-111.095h-81.689
	C271.899,205.793,264.03,224.197,251.868,238.923z"/>
<path fill="#EC2027" d="M104.949,114.541l-57.73-57.73C19.494,86.717,1.92,126.167,0,169.692h81.689
	C83.412,148.669,91.892,129.563,104.949,114.541z"/>
<path fill="#EC2027" d="M273.552,169.692h81.69c-1.901-43.094-19.144-82.196-46.396-111.991l-57.769,57.77
	C263.686,130.348,271.864,149.098,273.552,169.692z"/>
<path fill="#EC2027" d="M170.621,81.671V0c-43.043,1.668-82.155,18.632-112.06,45.617l57.798,57.798
	C131.318,91.056,150.078,83.15,170.621,81.671z"/>
<polygon fill="#FFFFFF" points="170.621,180.213 170.621,185.628 176.036,185.628 "/>
<polygon fill="#FFFFFF" points="176.036,185.628 178.478,188.07 180.92,185.628 "/>
<polygon fill="#FFFFFF" points="182.637,169.692 178.478,165.533 174.319,169.692 "/>
<polygon fill="#FFFFFF" points="170.621,173.39 167.21,176.802 170.621,180.213 "/>
<polygon fill="#FFFFFF" points="186.558,173.613 186.558,169.692 182.637,169.692 "/>
<polygon fill="#FFFFFF" points="186.558,179.991 189.747,176.802 186.558,173.613 "/>
<circle fill="#696364" cx="177.621" cy="177.66" r="36.28"/>
</svg>
