<?xml version="1.0" encoding="utf-8"?>
<!-- Generator: Adobe Illustrator 19.0.0, SVG Export Plug-In . SVG Version: 6.00 Build 0)  -->
<svg version="1.1"
	 id="Layer_1" xmlns:dc="http://purl.org/dc/elements/1.1/" xmlns:inkscape="http://www.inkscape.org/namespaces/inkscape" xmlns:rdf="http://www.w3.org/1999/02/22-rdf-syntax-ns#" xmlns:sodipodi="http://sodipodi.sourceforge.net/DTD/sodipodi-0.dtd" xmlns:svg="http://www.w3.org/2000/svg" xmlns:cc="http://creativecommons.org/ns#"
	 xmlns="http://www.w3.org/2000/svg" xmlns:xlink="http://www.w3.org/1999/xlink" x="0px" y="0px" viewBox="36 -201 512 512"
	 style="enable-background:new 36 -201 512 512;" xml:space="preserve">
<style type="text/css">
	.st0{fill:#333333;}
	.st1{fill:#ED1B24;}
</style>
<g id="g8010" transform="matrix(0.93750024,0,0,0.93750024,-5596.3901,2835.216)">
	<path id="path14064" class="st0" d="M6125.8-2777c10.8,18.6,34.9,25,53.5,14.2c18.6-10.8,25-34.9,14.2-53.5s-34.9-25-53.5-14.2
		C6121.4-2819.7,6115-2795.6,6125.8-2777z M6139.2-2784.8c-6.6-11.4-2.8-25.7,8.6-32.3c11.4-6.6,25.7-2.8,32.3,8.6
		c6.6,11.4,2.8,25.7-8.6,32.3C6160.2-2769.6,6145.8-2773.4,6139.2-2784.8L6139.2-2784.8z"/>
	<path id="path14060" class="st0" d="M6030.2-2923c10.8,18.6,34.9,25,53.5,14.2s25-34.9,14.2-53.5s-34.9-25-53.5-14.2
		C6025.8-2965.7,6019.4-2941.6,6030.2-2923L6030.2-2923z M6043.6-2930.8c-6.6-11.4-2.8-25.7,8.6-32.3c11.4-6.6,25.7-2.8,32.3,8.6
		c6.6,11.4,2.8,25.7-8.6,32.3C6064.6-2915.6,6050.2-2919.4,6043.6-2930.8z"/>
	<path id="path14058" class="st0" d="M6087.5-3046.6c10.8,18.6,34.9,25,53.5,14.2s25-34.9,14.2-53.5s-34.9-25-53.5-14.2
		S6076.7-3065.3,6087.5-3046.6L6087.5-3046.6z M6101-3054.4c-6.6-11.4-2.8-25.7,8.6-32.3c11.4-6.6,25.7-2.8,32.3,8.6
		c6.6,11.4,2.8,25.7-8.6,32.3C6121.9-3039.2,6107.6-3043,6101-3054.4z"/>
	<path id="path14054" class="st0" d="M6206.4-3114.9c10.8,18.6,34.9,25,53.5,14.2c18.6-10.8,25-34.9,14.2-53.5s-34.9-25-53.5-14.2
		C6202-3157.6,6195.6-3133.5,6206.4-3114.9z M6219.8-3122.6c-6.6-11.4-2.8-25.7,8.6-32.3c11.4-6.6,25.7-2.8,32.3,8.6
		c6.6,11.4,2.8,25.7-8.6,32.3C6240.8-3107.4,6226.4-3111.3,6219.8-3122.6L6219.8-3122.6z"/>
	<path id="path14050" class="st0" d="M6315.3-3033.7c10.8,18.6,34.9,25,53.5,14.2c18.6-10.8,25-34.9,14.2-53.5
		c-10.8-18.6-34.9-25-53.5-14.2C6310.9-3076.4,6304.5-3052.3,6315.3-3033.7z M6328.7-3041.5c-6.6-11.4-2.8-25.7,8.6-32.3
		c11.4-6.6,25.7-2.8,32.3,8.6c6.6,11.4,2.8,25.7-8.6,32.3C6349.7-3026.3,6335.3-3030.1,6328.7-3041.5L6328.7-3041.5z"/>
	<path id="path14260" class="st0" d="M6192.7-3116l-31.1,18.7c1.5,2,2.9,4.1,4.2,6.2c1.4,2.3,2.6,4.7,3.6,7.2l31.2-18.8
		C6197.3-3106.7,6194.6-3111.1,6192.7-3116z"/>
	<path id="path14254" class="st0" d="M6166.1-3042.5c-2.4,4.6-5.5,8.9-9.2,12.5l21.7,16.1c2.6-4.5,5.8-8.6,9.4-12.4L6166.1-3042.5
		L6166.1-3042.5z M6301.6-3034.8l-21.1,12.7c3.3,4,6,8.5,8.2,13.2l20.9-12.5C6306.2-3025.5,6303.5-3030,6301.6-3034.8z
		 M6170.3-2976.6l-59,14.7c2.1,4.8,3.3,9.9,3.6,15.1l59.1-14.7c-0.8-2.3-1.6-4.6-2.1-7C6171.1-2971.2,6170.6-2973.9,6170.3-2976.6
		L6170.3-2976.6z M6288.5-2956.6c-2.3,4.7-5.1,9-8.5,13l55.6,36.1c2.3-4.7,5.2-9,8.6-12.9L6288.5-2956.6L6288.5-2956.6z
		 M6202.5-2928.9l-31.6,82.6c5.1,1.2,9.9,3.2,14.4,5.8l31.6-82.6C6211.9-2924.4,6207.1-2926.3,6202.5-2928.9z"/>
	<path id="path14252" class="st0" d="M6394.9-3031.5c-2.2,4.7-5.1,9.1-8.6,12.9l65.5,42.5c2.2-4.7,5.1-9,8.6-12.9L6394.9-3031.5z"/>
	<path id="path7044-54" class="st1" d="M6208.4-3024.4c22.8-13.2,51.9-5.4,65.1,17.3s5.4,51.9-17.3,65.1
		c-22.8,13.2-51.9,5.4-65.1-17.3S6185.7-3011.2,6208.4-3024.4z"/>
	<path id="path13972" class="st0" d="M6463.9-2935.4c10.8,18.6,34.9,25,53.5,14.2s25-34.9,14.2-53.5s-34.9-25-53.5-14.2
		S6453.1-2954,6463.9-2935.4z M6477.3-2943.2c-6.6-11.4-2.8-25.7,8.6-32.3c11.4-6.6,25.7-2.8,32.3,8.6c6.6,11.4,2.8,25.7-8.6,32.3
		C6498.3-2928,6483.9-2931.8,6477.3-2943.2L6477.3-2943.2z"/>
	<path id="path14062" class="st0" d="M6347.7-2866.8c10.8,18.6,34.9,25,53.5,14.2s25-34.9,14.2-53.5s-34.9-25-53.5-14.2
		S6336.9-2885.4,6347.7-2866.8L6347.7-2866.8z M6361.2-2874.6c-6.6-11.4-2.8-25.7,8.6-32.3c11.4-6.6,25.7-2.8,32.3,8.6
		c6.6,11.4,2.8,25.7-8.6,32.3C6382.1-2859.4,6367.8-2863.2,6361.2-2874.6L6361.2-2874.6z"/>
</g>
</svg>
